<svg viewBox="0 0 512 512" xmlns="http://www.w3.org/2000/svg" xmlns:xlink="http://www.w3.org/1999/xlink"><clipPath id="a"><path d="m0 0h512v512h-512z"/></clipPath><path clip-path="url(#a)" d="m496 192h-202.7c-8.8 0-16-7.2-16-16s7.2-16 16-16h202.7c8.8 0 16 7.2 16 16s-7.2 16-16 16m0 64h-202.7c-8.8 0-16-7.2-16-16s7.2-16 16-16h202.7c8.8 0 16 7.2 16 16s-7.2 16-16 16m0 64h-202.7c-8.8 0-16-7.2-16-16s7.2-16 16-16h202.7c8.8 0 16 7.2 16 16s-7.2 16-16 16m0 64h-202.7c-8.8 0-16-7.2-16-16s7.2-16 16-16h202.7c8.8 0 16 7.2 16 16s-7.2 16-16 16m0 64h-202.7c-8.8 0-16-7.2-16-16s7.2-16 16-16h202.7c8.8 0 16 7.2 16 16s-7.2 16-16 16m-298.7-128h-160c-20.6 0-37.3-16.7-37.3-37.3v-85.3c0-20.7 16.7-37.4 37.3-37.4h160c20.6 0 37.3 16.7 37.3 37.3v85.3c.1 20.7-16.7 37.4-37.3 37.4m-160-128c-2.9 0-5.3 2.4-5.3 5.3v85.3c0 2.9 2.4 5.3 5.3 5.3h160c2.9 0 5.3-2.4 5.3-5.3v-85.3c0-2.9-2.4-5.3-5.3-5.3zm160 320h-160c-20.6 0-37.3-16.7-37.3-37.3v-85.3c0-20.7 16.7-37.4 37.3-37.4h160c20.6 0 37.3 16.7 37.3 37.3v85.3c.1 20.7-16.7 37.4-37.3 37.4m-160-128c-2.9 0-5.3 2.4-5.3 5.3v85.3c0 2.9 2.4 5.3 5.3 5.3h160c2.9 0 5.3-2.4 5.3-5.3v-85.3c0-2.9-2.4-5.3-5.3-5.3zm458.7 128h-202.7c-8.8 0-16-7.2-16-16s7.2-16 16-16h202.7c8.8 0 16 7.2 16 16s-7.2 16-16 16m-21.3-384h-266.7c-20.6 0-37.3-16.7-37.3-37.3v-53.4c0-20.6 16.7-37.3 37.3-37.3h266.7c20.6 0 37.3 16.7 37.3 37.3v53.3c0 20.7-16.7 37.4-37.3 37.4m-266.7-96c-2.9 0-5.3 2.4-5.3 5.3v53.3c0 2.9 2.4 5.3 5.3 5.3h266.7c2.9 0 5.3-2.4 5.3-5.3v-53.3c0-2.9-2.4-5.3-5.3-5.3zm-144 96c-35.3 0-64-28.7-64-64s28.7-64 64-64 64 28.7 64 64-28.7 64-64 64m0-96c-17.6 0-32 14.4-32 32s14.4 32 32 32 32-14.4 32-32-14.4-32-32-32" fill="#fff"/></svg>