<svg viewBox="0 0 373 452" xmlns="http://www.w3.org/2000/svg"><g fill="#fcfcfc" stroke="#fff" stroke-miterlimit="10" stroke-width="10"><ellipse cx="120.1" cy="65.4" rx="8.9" ry="8.6"/><path d="m190.9 189.4c0 21.8 17.8 36.5 42.5 56.8 4.4 3.6 8.9 7.3 13.7 11.4 1.7 1.4 3.7 2.1 5.8 2.1s4.1-.7 5.8-2.1c4.8-4.1 9.4-7.8 13.8-11.4 22.4-18.4 42.4-33.9 42.4-56.8 0-20.6-15.6-36.7-35.4-36.7-12.6 0-21.1 6.2-26.6 12.9-5.4-6.7-13.9-12.9-26.6-12.9-19.8-.1-35.4 16.1-35.4 36.7zm53.5-3.4c1.1 3.7 4.5 6.4 8.5 6.4s7.5-2.6 8.5-6.3c.2-.7 4.9-16.2 18-16.2 11.5 0 17.7 10 17.7 19.5 0 15.6-19.9 30.2-36.1 43.6-2.6 2.2-5.3 4.4-8.1 6.7-2.8-2.3-5.5-4.5-8.1-6.7-22.6-18.6-36.2-29.8-36.2-43.6 0-9.4 6.2-19.5 17.7-19.5 13.1 0 17.9 15.5 18.1 16.1zm-88.9 200.6c0-4.8-4-8.6-8.9-8.6h-53.1c-4.9 0-8.9 3.9-8.9 8.6s4 8.6 8.9 8.6h53.1c4.9 0 8.9-3.9 8.9-8.6z"/><ellipse cx="120.1" cy="438.4" rx="8.9" ry="8.6"/><path d="m199.8 5h-159.4c-19.5 0-35.4 15.5-35.4 34.5v372.9c0 19 15.9 34.5 35.4 34.5h39.8c4.9 0 8.9-3.9 8.9-8.6s-4-8.6-8.9-8.6h-39.8c-9.8 0-17.7-7.7-17.7-17.3v-372.9c0-9.5 7.9-17.3 17.7-17.3h159.4c9.8 0 17.7 7.7 17.7 17.3v53.8c-47.3 14.8-79.7 57.8-79.7 106.8 0 19.6 5.4 38.9 15.7 56.2l-15.2 44.7c-1.1 3.1-.2 6.5 2.1 8.8 2.4 2.3 5.9 3.1 9.1 2.1l45.8-14.9c7.1 4 14.5 7.3 22.2 9.8v105.7c0 9.5-7.9 17.3-17.7 17.3h-39.8c-4.9 0-8.9 3.9-8.9 8.6s4 8.6 8.9 8.6h39.8c19.5 0 35.4-15.5 35.4-34.5v-101.5c5.9.9 11.8 1.4 17.7 1.4 63.5 0 115.1-50.3 115.1-112.2s-51.6-112.3-115.1-112.3c-5.9 0-11.9.4-17.7 1.3v-49.7c0-19-15.9-34.5-35.4-34.5zm53.1 100.1c53.7 0 97.4 42.6 97.4 95s-43.7 95-97.4 95c-18.5 0-36.2-5.2-51.8-14.8-2.2-1.4-5-1.7-7.5-.9l-32.9 10.6 11-32.1c.8-2.5.5-5.2-.9-7.3-9.9-15.4-15.2-32.8-15.2-50.5-.1-52.3 43.2-95 97.3-95z"/></g></svg>