<svg viewBox="0 0 48.7 43" xmlns="http://www.w3.org/2000/svg" xmlns:xlink="http://www.w3.org/1999/xlink"><clipPath id="a"><path d="m0 0h48.7v43h-48.7z"/></clipPath><path clip-path="url(#a)" d="m47.3 8.6h-12.9v-2.8c0-3.2-2.6-5.8-5.8-5.8h-8.5c-3.2 0-5.8 2.6-5.8 5.8v2.8h-12.9c-.8 0-1.4.6-1.4 1.4v26c0 3.9 3.2 7 7 7h34.7c3.9 0 7-3.2 7-7v-26c0-.8-.6-1.4-1.4-1.4m-19.7 18.6c0 1.8-1.5 3.2-3.2 3.2-1.8 0-3.2-1.5-3.2-3.2v-3.2h6.5v3.2zm1.4-6.1h-9.3c-.8 0-1.4.6-1.4 1.4v2.6c-8.3-1.7-14.6-7.1-15.4-13.6h42.8c-.8 6.5-7 11.9-15.3 13.7v-2.6c.1-.8-.6-1.5-1.4-1.5m-11.8-15.3c0-1.6 1.3-2.9 2.9-2.9h8.5c1.6 0 2.9 1.3 2.9 2.9v2.8h-14.3zm28.7 30.2c0 2.3-1.9 4.2-4.2 4.2h-34.7c-2.3 0-4.2-1.9-4.2-4.2v-17.2c1.2 1.7 2.7 3.2 4.5 4.5 3.1 2.3 6.9 4 11 4.8.4 3 3 5.2 6 5.2 3.1 0 5.6-2.3 6-5.2 4.1-.8 7.9-2.4 11-4.8 1.8-1.3 3.3-2.9 4.4-4.5v17.2z" fill="#fff"/></svg>