<svg viewBox="0 0 512 427.1" xmlns="http://www.w3.org/2000/svg" xmlns:xlink="http://www.w3.org/1999/xlink"><clipPath id="a"><path d="m0 0h512v427.1h-512z"/></clipPath><path clip-path="url(#a)" d="m502 114.2c6-2.1 10-7.8 10-14.2s-4-12-10-14.1l-241-85c-3.2-1.1-6.8-1.1-10 0l-241 85c-6 2.1-10 7.8-10 14.1s4 12 10 14.2l95.5 33.9v97.9c0 16.1 16.8 29.8 50.1 40.6 29 9.4 64.6 14.6 100.5 14.6s71.5-5.2 100.5-14.6c33.2-10.8 50.1-24.4 50.1-40.6v-97.8l39.4-14v135.6c-17.5 6.2-30.1 22.9-30.1 42.6 0 19.6 12.6 36.4 30.1 42.6v57.3c0 8.3 6.7 15 15 15s15-6.7 15-15v-57.3c17.5-6.2 30.1-22.9 30.1-42.6 0-19.6-12.6-36.4-30.1-42.6v-146.4zm-41 213.2c-8.3 0-15.1-6.8-15.1-15.1s6.8-15.1 15.1-15.1 15.1 6.8 15.1 15.1-6.8 15.1-15.1 15.1m-205-296.5 196.1 69.2-196.1 69.7-196.1-69.7zm120.6 212.8c-2.9 2.9-13.2 9.8-36.4 16.5-24.8 7.1-54.7 11-84.2 11s-59.4-3.9-84.2-11c-23.2-6.6-33.5-13.6-36.4-16.5v-84.9l115.6 41c1.6.6 3.3.9 5 .9s3.4-.3 5-.9l115.5-41.1z" fill="#fff"/></svg>