<svg viewBox="0 0 46 46" xmlns="http://www.w3.org/2000/svg" xmlns:xlink="http://www.w3.org/1999/xlink"><clipPath id="a"><path d="m0 0h46v46h-46z"/></clipPath><g fill="#fff"><path clip-path="url(#a)" d="m46 1.1c0-.6-.5-1.1-1.1-1.1h-5.5c-.6 0-1.1.5-1.1 1.1v1.4c0 .1-.1.3-.3.3h-11.1c-.1 0-.2-.1-.2-.2-.6-1.6-2.1-2.6-3.7-2.6s-3.1 1-3.6 2.6c0 .1-.1.2-.2.2h-11.3c-.1 0-.3-.1-.3-.3v-1.4c.1-.6-.4-1.1-1-1.1h-5.5c-.6 0-1.1.5-1.1 1.1v5.5c0 .6.5 1.1 1.1 1.1h5.5c.6 0 1.1-.5 1.1-1.1v-1.4c0-.1.1-.3.3-.3h5.7c.1 0 .2.1.2.2s0 .2-.1.3c-4.7 3-7.8 8.1-8.1 13.8 0 .1-.1.2-.2.2-1.5.5-2.6 2-2.6 3.6 0 2.1 1.7 3.8 3.8 3.8s3.8-1.7 3.8-3.8c0-1.6-1-3-2.5-3.6-.1 0-.2-.1-.2-.3.5-6.5 5.2-12.1 11.5-13.7.1 0 .2 0 .3.1.7 1.3 2 2.1 3.4 2.1s2.8-.8 3.4-2.1c0-.1.1-.1.2-.1h.1c6.3 1.6 11 7.2 11.5 13.7 0 .1-.1.2-.2.3-1.5.6-2.5 2-2.5 3.6 0 2.1 1.7 3.8 3.8 3.8s3.8-1.7 3.8-3.8c0-1.6-1-3.1-2.6-3.6-.1 0-.2-.1-.2-.2-.2-5.7-3.3-10.8-8-13.8-.1-.1-.1-.2-.1-.3s.1-.2.2-.2h5.7c.1 0 .3.1.3.3v1.4c0 .6.5 1.1 1.1 1.1h5.5c.6 0 1.1-.5 1.1-1.1v-5.5zm-40.5 4.1c0 .1-.1.3-.3.3h-2.7c-.1 0-.3-.1-.3-.3v-2.7c0-.1.1-.3.3-.3h2.7c.1 0 .3.1.3.3zm2.8 17.8c0 .9-.7 1.6-1.6 1.6s-1.7-.7-1.7-1.6.7-1.6 1.6-1.6 1.7.7 1.7 1.6m14.7-17.5c-.9 0-1.6-.7-1.6-1.6s.7-1.6 1.6-1.6 1.6.7 1.6 1.6c0 .8-.7 1.6-1.6 1.6m16.4 15.9c.9 0 1.6.7 1.6 1.6s-.7 1.6-1.6 1.6-1.6-.7-1.6-1.6c-.1-.9.7-1.6 1.6-1.6m4.4-16.2c0 .1-.1.3-.3.3h-2.7c-.1 0-.3-.1-.3-.3v-2.7c0-.1.1-.3.3-.3h2.7c.1 0 .3.1.3.3z"/><path clip-path="url(#a)" d="m34.8 27.8-10.9-16.3s0-.1-.1-.1c-.2-.3-.5-.4-.8-.4-.4 0-.7.2-.9.5l-10.9 16.3c-.3.4-.2 1 .1 1.4 2.7 2.7 4.5 6.4 5 10.2 0 .1 0 .2-.1.2-.2.2-.4.3-.6.5-1.2 1.3-1.9 2.9-1.9 4.7 0 .6.5 1.1 1.1 1.1h16.4c.6 0 1.1-.5 1.1-1.1 0-1.8-.7-3.4-1.9-4.7-.2-.2-.4-.4-.6-.5-.1-.1-.1-.1-.1-.2.5-3.9 2.3-7.5 5-10.2.4-.3.4-.9.1-1.4m-11.8-1c.9 0 1.6.7 1.6 1.6s-.7 1.6-1.6 1.6-1.6-.7-1.6-1.6c0-.8.7-1.6 1.6-1.6m6.8 16.6v.2c0 .1-.1.1-.2.1h-13.2c-.1 0-.2 0-.2-.1s-.1-.2 0-.2c.6-1.8 2.3-3 4.1-3h5.5c1.7.1 3.4 1.3 4 3m2.6-14.9c-2.5 2.8-4.1 6.1-4.7 9.8 0 .1-.1.1-.1.2h-.2c-.5-.1-1.1-.2-1.6-.2h-5.5c-.5 0-1.1.1-1.6.2h-.2c-.1 0-.1-.1-.1-.2-.6-3.6-2.3-7-4.7-9.8-.1-.1-.1-.2 0-.3l7.8-11.7c.1-.1.2-.1.3-.1s.2.1.2.2v8c0 .1-.1.2-.2.2-1.5.5-2.6 2-2.6 3.6 0 2.1 1.7 3.8 3.8 3.8s3.8-1.7 3.8-3.8c0-1.6-1-3.1-2.6-3.6-.1 0-.2-.1-.2-.2v-8c0-.1.1-.2.2-.2s.2 0 .3.1l7.8 11.7c.1.1.1.2.1.3"/></g></svg>